<?xml version="1.0" encoding="UTF-8"?>
<svg xmlns="http://www.w3.org/2000/svg" viewBox="0 0 1024 1024" role="img" aria-labelledby="title desc">
  <title id="title">Veil app icon</title>
  <desc id="desc">A folded translucent V mark on a deep ink rounded square.</desc>
  <defs>
    <linearGradient id="bg" x1="132" y1="88" x2="892" y2="936" gradientUnits="userSpaceOnUse">
      <stop offset="0" stop-color="#172554"/>
      <stop offset="0.46" stop-color="#0f172a"/>
      <stop offset="1" stop-color="#07111f"/>
    </linearGradient>
    <radialGradient id="glow" cx="322" cy="210" r="650" gradientUnits="userSpaceOnUse">
      <stop offset="0" stop-color="#2dd4bf" stop-opacity="0.46"/>
      <stop offset="0.44" stop-color="#38bdf8" stop-opacity="0.18"/>
      <stop offset="1" stop-color="#38bdf8" stop-opacity="0"/>
    </radialGradient>
    <linearGradient id="leftVeil" x1="174" y1="208" x2="514" y2="842" gradientUnits="userSpaceOnUse">
      <stop offset="0" stop-color="#f8fafc"/>
      <stop offset="0.42" stop-color="#67e8f9"/>
      <stop offset="1" stop-color="#14b8a6"/>
    </linearGradient>
    <linearGradient id="rightVeil" x1="850" y1="208" x2="510" y2="842" gradientUnits="userSpaceOnUse">
      <stop offset="0" stop-color="#f8fafc"/>
      <stop offset="0.4" stop-color="#93c5fd"/>
      <stop offset="1" stop-color="#22d3ee"/>
    </linearGradient>
    <linearGradient id="fold" x1="342" y1="706" x2="682" y2="706" gradientUnits="userSpaceOnUse">
      <stop offset="0" stop-color="#99f6e4" stop-opacity="0"/>
      <stop offset="0.5" stop-color="#f8fafc" stop-opacity="0.92"/>
      <stop offset="1" stop-color="#bae6fd" stop-opacity="0"/>
    </linearGradient>
    <filter id="softShadow" x="-18%" y="-16%" width="136%" height="132%" color-interpolation-filters="sRGB">
      <feDropShadow dx="0" dy="32" stdDeviation="34" flood-color="#020617" flood-opacity="0.34"/>
    </filter>
  </defs>

  <g transform="translate(512 512) scale(0.78) translate(-512 -512)">
    <rect width="1024" height="1024" rx="224" fill="url(#bg)"/>
    <rect width="1024" height="1024" rx="224" fill="url(#glow)"/>
    <g transform="translate(512 512) scale(0.9) translate(-512 -512)">
      <path d="M166 158c73 63 137 151 201 264 65 114 114 220 145 325 31-105 80-211 145-325 64-113 128-201 201-264 35-30 89-4 89 42 0 13-5 27-15 38-110 130-201 274-273 431-37 80-67 160-90 240-11 38-43 64-57 64s-46-26-57-64c-23-80-53-160-90-240-72-157-163-301-273-431-10-11-15-25-15-38 0-46 54-72 89-42Z" fill="#020617" opacity="0.18"/>
      <g filter="url(#softShadow)">
        <path d="M164 156c74 64 139 153 204 268 62 109 110 211 144 309 34-98 82-200 144-309 65-115 130-204 204-268 35-30 88-5 88 42 0 13-5 26-14 37-111 132-203 277-276 435-37 81-67 161-90 241-11 38-43 63-56 63s-45-25-56-63c-23-80-53-160-90-241-73-158-165-303-276-435-9-11-14-24-14-37 0-47 53-72 88-42Z" fill="url(#leftVeil)" opacity="0.9"/>
        <path d="M860 156c-74 64-139 153-204 268-62 109-110 211-144 309-34-98-82-200-144-309-65-115-130-204-204-268-35-30-88-5-88 42 0 13 5 26 14 37 111 132 203 277 276 435 37 81 67 161 90 241 11 38 43 63 56 63s45-25 56-63c23-80 53-160 90-241 73-158 165-303 276-435 9-11 14-24 14-37 0-47-53-72-88-42Z" fill="url(#rightVeil)" opacity="0.82"/>
        <path d="M342 706c55 70 111 117 170 141 59-24 115-71 170-141-27 72-53 140-78 205-19 47-62 76-92 76s-73-29-92-76c-25-65-51-133-78-205Z" fill="url(#fold)" opacity="0.76"/>
      </g>
      <path d="M512 745c24-70 57-144 99-222 53-98 115-189 185-272" fill="none" stroke="#f8fafc" stroke-width="26" stroke-linecap="round" opacity="0.2"/>
      <path d="M512 745c-24-70-57-144-99-222-53-98-115-189-185-272" fill="none" stroke="#ffffff" stroke-width="18" stroke-linecap="round" opacity="0.12"/>
    </g>
  </g>
</svg>
