<svg xmlns="http://www.w3.org/2000/svg" viewBox="0 0 640 400" role="img" aria-label="Abstract multi-profile isolation poster">
  <defs>
    <linearGradient id="iso-bg" x1="0" y1="0" x2="1" y2="1">
      <stop offset="0" stop-color="#fafbfc"/>
      <stop offset="1" stop-color="#eef2f4"/>
    </linearGradient>
    <pattern id="iso-grid" width="20" height="20" patternUnits="userSpaceOnUse">
      <path d="M20 0H0V20" fill="none" stroke="#07111f" stroke-opacity="0.045" stroke-width="1"/>
    </pattern>
    <filter id="iso-shadow" x="-20%" y="-30%" width="140%" height="170%">
      <feDropShadow dx="0" dy="14" stdDeviation="15" flood-color="#07111f" flood-opacity="0.09"/>
    </filter>
  </defs>

  <rect width="640" height="400" fill="url(#iso-bg)"/>
  <rect width="640" height="400" fill="url(#iso-grid)"/>

  <g fill="none" stroke="#07111f" stroke-opacity="0.07" stroke-width="1">
    <path d="M44 72H596"/>
    <path d="M44 328H596"/>
    <path d="M44 72V328"/>
    <path d="M596 72V328"/>
  </g>

  <g filter="url(#iso-shadow)">
    <g transform="translate(54 94)">
      <rect width="112" height="212" rx="8" fill="#d8f4ef" stroke="#14b8a6" stroke-opacity="0.48" stroke-width="1.25"/>
      <rect x="18" y="26" width="76" height="42" rx="5" fill="#14b8a6" fill-opacity="0.2"/>
      <circle cx="36" cy="112" r="6" fill="#14b8a6" fill-opacity="0.56"/>
      <circle cx="78" cy="112" r="6" fill="#14b8a6" fill-opacity="0.32"/>
      <path d="M28 150h56M28 172h36" stroke="#14b8a6" stroke-opacity="0.48" stroke-width="2" stroke-linecap="round"/>
      <rect x="46" y="28" width="20" height="38" rx="3" fill="#14b8a6" fill-opacity="0.42"/>
    </g>

    <g transform="translate(194 94)">
      <rect width="112" height="212" rx="8" fill="#d9eff8" stroke="#38bdf8" stroke-opacity="0.48" stroke-width="1.25"/>
      <circle cx="56" cy="48" r="22" fill="#38bdf8" fill-opacity="0.2"/>
      <path d="M32 112h48M56 88v48" stroke="#38bdf8" stroke-opacity="0.48" stroke-width="2" stroke-linecap="round"/>
      <circle cx="36" cy="170" r="5" fill="#38bdf8" fill-opacity="0.52"/>
      <circle cx="56" cy="170" r="5" fill="#38bdf8" fill-opacity="0.34"/>
      <circle cx="76" cy="170" r="5" fill="#38bdf8" fill-opacity="0.22"/>
    </g>

    <g transform="translate(334 94)">
      <rect width="112" height="212" rx="8" fill="#f7e5c5" stroke="#f4b860" stroke-opacity="0.55" stroke-width="1.25"/>
      <path d="M28 48h56l-28 46Z" fill="#f4b860" fill-opacity="0.28" stroke="#f4b860" stroke-opacity="0.5" stroke-width="1.5" stroke-linejoin="round"/>
      <rect x="30" y="128" width="52" height="14" rx="4" fill="#f4b860" fill-opacity="0.32"/>
      <rect x="30" y="158" width="34" height="14" rx="4" fill="#f4b860" fill-opacity="0.22"/>
      <circle cx="82" cy="165" r="6" fill="#f4b860" fill-opacity="0.45"/>
    </g>

    <g transform="translate(474 94)">
      <rect width="112" height="212" rx="8" fill="#f5dce2" stroke="#e8798b" stroke-opacity="0.5" stroke-width="1.25"/>
      <rect x="28" y="36" width="56" height="56" rx="7" fill="#e8798b" fill-opacity="0.24"/>
      <circle cx="56" cy="64" r="12" fill="#e8798b" fill-opacity="0.42"/>
      <path d="M30 130h52M30 154h52M30 178h30" stroke="#e8798b" stroke-opacity="0.45" stroke-width="2" stroke-linecap="round"/>
    </g>
  </g>

  <g stroke="#07111f" stroke-opacity="0.09" stroke-width="1">
    <path d="M180 88v224"/>
    <path d="M320 88v224"/>
    <path d="M460 88v224"/>
  </g>
</svg>
