<svg xmlns="http://www.w3.org/2000/svg" viewBox="0 0 640 400" role="img" aria-label="Abstract deterministic fingerprint poster">
  <defs>
    <linearGradient id="fp-bg" x1="0" y1="0" x2="1" y2="1">
      <stop offset="0" stop-color="#fafbfc"/>
      <stop offset="1" stop-color="#eef2f4"/>
    </linearGradient>
    <radialGradient id="fp-wash" cx="28%" cy="50%" r="48%">
      <stop offset="0" stop-color="#5eead4" stop-opacity="0.12"/>
      <stop offset="0.54" stop-color="#5eead4" stop-opacity="0.04"/>
      <stop offset="1" stop-color="#5eead4" stop-opacity="0"/>
    </radialGradient>
    <pattern id="fp-grid" width="20" height="20" patternUnits="userSpaceOnUse">
      <path d="M20 0H0V20" fill="none" stroke="#07111f" stroke-opacity="0.045" stroke-width="1"/>
    </pattern>
    <filter id="fp-soft" x="-8%" y="-8%" width="116%" height="116%">
      <feGaussianBlur stdDeviation="0.15"/>
    </filter>
  </defs>

  <rect width="640" height="400" fill="url(#fp-bg)"/>
  <rect width="640" height="400" fill="url(#fp-grid)"/>
  <rect width="640" height="400" fill="url(#fp-wash)"/>

  <g transform="translate(184 205)" fill="none" stroke="#14b8a6" stroke-width="2.15" stroke-linecap="round" stroke-linejoin="round" filter="url(#fp-soft)">
    <path d="M-130 56c-8-56 8-106 51-135 51-35 127-36 179 1 44 31 66 80 58 135"/>
    <path d="M-109 46c-6-46 7-87 43-112 44-30 108-30 152 1 36 26 55 66 49 111"/>
    <path d="M-88 36c-4-36 8-68 35-88 37-27 91-25 125 1 29 22 44 52 41 86"/>
    <path d="M-67 25c-2-25 8-50 29-65 27-20 69-20 96 0 21 16 32 39 31 64"/>
    <path d="M-45 14c0-16 7-32 20-42 19-14 48-13 66 0 14 11 21 25 21 41"/>
    <path d="M-22 4c3-11 10-18 21-21 16-3 30 6 35 21"/>
    <path d="M-136 91c21 3 37-3 50-16 18-18 16-43 21-67 6-29 25-51 53-61"/>
    <path d="M-113 111c33 2 59-9 78-33 22-28 13-63 34-89 16-19 43-24 67-13"/>
    <path d="M-74 126c36-9 58-30 69-62 9-29 7-64 44-73 29-7 55 12 59 42"/>
    <path d="M-27 130c24-16 37-37 40-66 2-20 7-38 28-45 16-5 34 2 43 17"/>
    <path d="M28 123c15-17 20-38 17-62-1-10 2-20 12-25 11-5 24 1 29 11"/>
    <path d="M84 100c25-12 40-32 45-59 5-29-4-55-25-75"/>
    <path d="M112 76c33-15 51-42 53-78 2-45-22-83-62-103"/>
    <path d="M-154 21c10-57 44-101 96-121"/>
    <path d="M-151-23c22-56 68-92 128-100 61-9 120 13 157 59"/>
  </g>

  <g fill="#07111f">
    <circle cx="50" cy="260" r="3.4"/>
    <circle cx="318" cy="141" r="3.4"/>
    <circle cx="117" cy="92" r="3.4"/>
  </g>

  <g fill="#14b8a6" opacity="0.22">
    <circle cx="432" cy="124" r="2"/>
    <circle cx="486" cy="124" r="2"/>
    <circle cx="540" cy="124" r="2"/>
    <circle cx="432" cy="178" r="2"/>
    <circle cx="486" cy="178" r="2"/>
    <circle cx="540" cy="178" r="2"/>
    <circle cx="432" cy="232" r="2"/>
    <circle cx="486" cy="232" r="2"/>
    <circle cx="540" cy="232" r="2"/>
  </g>

  <g stroke="#07111f" stroke-width="1" opacity="0.07">
    <path d="M388 92H568"/>
    <path d="M388 146H568"/>
    <path d="M388 200H568"/>
    <path d="M388 254H568"/>
    <path d="M416 72V286"/>
    <path d="M470 72V286"/>
    <path d="M524 72V286"/>
  </g>
</svg>
