<svg xmlns="http://www.w3.org/2000/svg" viewBox="0 0 600 750" role="img" aria-label="Abstract layered encryption stack poster">
  <defs>
    <linearGradient id="enc-bg" x1="0" y1="0" x2="0" y2="1">
      <stop offset="0" stop-color="#07111f"/>
      <stop offset="1" stop-color="#050b14"/>
    </linearGradient>
    <radialGradient id="enc-glow" cx="50%" cy="20%" r="72%">
      <stop offset="0" stop-color="#14b8a6" stop-opacity="0.22"/>
      <stop offset="0.42" stop-color="#14b8a6" stop-opacity="0.08"/>
      <stop offset="1" stop-color="#14b8a6" stop-opacity="0"/>
    </radialGradient>
    <linearGradient id="enc-panel-a" x1="0" y1="0" x2="1" y2="1">
      <stop offset="0" stop-color="#2f3845" stop-opacity="0.78"/>
      <stop offset="1" stop-color="#151f2d" stop-opacity="0.84"/>
    </linearGradient>
    <linearGradient id="enc-panel-b" x1="0" y1="0" x2="1" y2="1">
      <stop offset="0" stop-color="#263241" stop-opacity="0.72"/>
      <stop offset="1" stop-color="#101927" stop-opacity="0.86"/>
    </linearGradient>
    <linearGradient id="enc-panel-c" x1="0" y1="0" x2="1" y2="1">
      <stop offset="0" stop-color="#1a2533" stop-opacity="0.76"/>
      <stop offset="1" stop-color="#0d1724" stop-opacity="0.9"/>
    </linearGradient>
    <linearGradient id="enc-panel-teal" x1="0" y1="0" x2="1" y2="1">
      <stop offset="0" stop-color="#5eead4" stop-opacity="0.92"/>
      <stop offset="1" stop-color="#14b8a6" stop-opacity="0.74"/>
    </linearGradient>
    <filter id="enc-shadow" x="-20%" y="-40%" width="140%" height="190%">
      <feDropShadow dx="0" dy="18" stdDeviation="18" flood-color="#020713" flood-opacity="0.45"/>
      <feDropShadow dx="0" dy="0" stdDeviation="10" flood-color="#14b8a6" flood-opacity="0.06"/>
    </filter>
    <pattern id="enc-grid" width="30" height="30" patternUnits="userSpaceOnUse">
      <path d="M30 0H0V30" fill="none" stroke="#fafbfc" stroke-opacity="0.035" stroke-width="1"/>
    </pattern>
    <pattern id="enc-micro-grid" width="10" height="10" patternUnits="userSpaceOnUse">
      <path d="M10 0H0V10" fill="none" stroke="#fafbfc" stroke-opacity="0.035" stroke-width="0.8"/>
    </pattern>
  </defs>

  <rect width="600" height="750" fill="url(#enc-bg)"/>
  <rect width="600" height="750" fill="url(#enc-grid)"/>
  <rect width="600" height="750" fill="url(#enc-glow)"/>

  <g opacity="0.26" stroke="#5eead4" stroke-width="1">
    <path d="M84 125H218M382 125H516"/>
    <path d="M84 625H218M382 625H516"/>
    <path d="M96 92V212M504 538V658"/>
    <path d="M504 92V212M96 538V658"/>
  </g>

  <g filter="url(#enc-shadow)">
    <g transform="translate(48 504)">
      <path d="M0 28 44 0h508l-44 28H0Z" fill="url(#enc-panel-a)" stroke="#fafbfc" stroke-opacity="0.12"/>
      <path d="M0 28h508v74H0Z" fill="#1a2533" fill-opacity="0.64" stroke="#fafbfc" stroke-opacity="0.08"/>
      <path d="M508 28 552 0v74l-44 28V28Z" fill="#101927" fill-opacity="0.82" stroke="#fafbfc" stroke-opacity="0.08"/>
      <rect x="38" y="44" width="410" height="1.2" fill="#5eead4" opacity="0.18"/>
      <rect x="38" y="68" width="310" height="1.2" fill="#fafbfc" opacity="0.08"/>
      <circle cx="454" cy="66" r="4" fill="#5eead4" opacity="0.42"/>
    </g>

    <g transform="translate(82 382)">
      <path d="M0 26 40 0h440l-40 26H0Z" fill="url(#enc-panel-b)" stroke="#fafbfc" stroke-opacity="0.12"/>
      <path d="M0 26h440v70H0Z" fill="#15202e" fill-opacity="0.68" stroke="#fafbfc" stroke-opacity="0.08"/>
      <path d="M440 26 480 0v70l-40 26V26Z" fill="#0f1927" fill-opacity="0.84" stroke="#fafbfc" stroke-opacity="0.08"/>
      <rect x="34" y="41" width="350" height="1.2" fill="#5eead4" opacity="0.18"/>
      <rect x="34" y="64" width="258" height="1.2" fill="#fafbfc" opacity="0.08"/>
      <circle cx="394" cy="62" r="4" fill="#5eead4" opacity="0.38"/>
    </g>

    <g transform="translate(116 260)">
      <path d="M0 24 36 0h372l-36 24H0Z" fill="url(#enc-panel-c)" stroke="#fafbfc" stroke-opacity="0.12"/>
      <path d="M0 24h372v66H0Z" fill="#101b29" fill-opacity="0.74" stroke="#fafbfc" stroke-opacity="0.08"/>
      <path d="M372 24 408 0v66l-36 24V24Z" fill="#0b1624" fill-opacity="0.86" stroke="#fafbfc" stroke-opacity="0.08"/>
      <rect x="30" y="38" width="294" height="1.2" fill="#5eead4" opacity="0.18"/>
      <rect x="30" y="60" width="210" height="1.2" fill="#fafbfc" opacity="0.08"/>
      <circle cx="330" cy="58" r="4" fill="#5eead4" opacity="0.35"/>
    </g>

    <g transform="translate(150 138)">
      <path d="M0 22 32 0h304l-32 22H0Z" fill="url(#enc-panel-teal)" stroke="#cffff8" stroke-opacity="0.38"/>
      <path d="M0 22h304v62H0Z" fill="#14b8a6" fill-opacity="0.72" stroke="#cffff8" stroke-opacity="0.18"/>
      <path d="M304 22 336 0v62l-32 22V22Z" fill="#0f8f82" fill-opacity="0.8" stroke="#cffff8" stroke-opacity="0.18"/>
      <rect x="26" y="35" width="238" height="1.2" fill="#07111f" opacity="0.24"/>
      <rect x="26" y="56" width="164" height="1.2" fill="#07111f" opacity="0.18"/>
      <circle cx="268" cy="54" r="4" fill="#07111f" opacity="0.35"/>
    </g>
  </g>

  <g stroke="#5eead4" stroke-width="1.25" stroke-linecap="round" opacity="0.42">
    <path d="M300 222V252"/>
    <path d="M300 344V374"/>
    <path d="M300 466V496"/>
    <path d="M292 250l8 8 8-8"/>
    <path d="M292 372l8 8 8-8"/>
    <path d="M292 494l8 8 8-8"/>
  </g>

  <g opacity="0.18">
    <rect x="240" y="114" width="120" height="522" fill="url(#enc-micro-grid)"/>
    <path d="M240 114h120v522H240Z" fill="none" stroke="#5eead4" stroke-opacity="0.12"/>
  </g>
</svg>
