<svg xmlns="http://www.w3.org/2000/svg" width="1600" height="2000" viewBox="0 0 1600 2000" role="img" aria-labelledby="title desc">
  <title id="title">Veil register poster</title>
  <desc id="desc">A premium Veil poster for the WorkOS AuthKit register content panel.</desc>
  <defs>
    <linearGradient id="bg" x1="120" y1="80" x2="1510" y2="1920" gradientUnits="userSpaceOnUse">
      <stop offset="0" stop-color="#f8fafc"/>
      <stop offset="0.32" stop-color="#dff8f5"/>
      <stop offset="0.68" stop-color="#10181b"/>
      <stop offset="1" stop-color="#05090b"/>
    </linearGradient>
    <radialGradient id="mintGlow" cx="390" cy="360" r="850" gradientUnits="userSpaceOnUse">
      <stop offset="0" stop-color="#99f6e4" stop-opacity="0.95"/>
      <stop offset="0.44" stop-color="#22d3ee" stop-opacity="0.23"/>
      <stop offset="1" stop-color="#22d3ee" stop-opacity="0"/>
    </radialGradient>
    <radialGradient id="roseGlow" cx="1260" cy="1220" r="720" gradientUnits="userSpaceOnUse">
      <stop offset="0" stop-color="#fb7185" stop-opacity="0.48"/>
      <stop offset="0.48" stop-color="#f59e0b" stop-opacity="0.14"/>
      <stop offset="1" stop-color="#f59e0b" stop-opacity="0"/>
    </radialGradient>
    <linearGradient id="panel" x1="220" y1="236" x2="1316" y2="1480" gradientUnits="userSpaceOnUse">
      <stop offset="0" stop-color="#ffffff" stop-opacity="0.78"/>
      <stop offset="0.45" stop-color="#ffffff" stop-opacity="0.18"/>
      <stop offset="1" stop-color="#ffffff" stop-opacity="0.07"/>
    </linearGradient>
    <linearGradient id="veilLeft" x1="0" y1="0" x2="180" y2="260" gradientUnits="userSpaceOnUse">
      <stop offset="0" stop-color="#ffffff"/>
      <stop offset="0.45" stop-color="#67e8f9"/>
      <stop offset="1" stop-color="#14b8a6"/>
    </linearGradient>
    <linearGradient id="veilRight" x1="320" y1="0" x2="160" y2="260" gradientUnits="userSpaceOnUse">
      <stop offset="0" stop-color="#ffffff"/>
      <stop offset="0.43" stop-color="#93c5fd"/>
      <stop offset="1" stop-color="#22d3ee"/>
    </linearGradient>
    <linearGradient id="track" x1="232" y1="992" x2="1364" y2="992" gradientUnits="userSpaceOnUse">
      <stop offset="0" stop-color="#14b8a6"/>
      <stop offset="0.48" stop-color="#60a5fa"/>
      <stop offset="1" stop-color="#fb7185"/>
    </linearGradient>
    <filter id="shadow" x="-30%" y="-30%" width="160%" height="160%" color-interpolation-filters="sRGB">
      <feDropShadow dx="0" dy="26" stdDeviation="44" flood-color="#020617" flood-opacity="0.34"/>
    </filter>
    <filter id="soft" x="-25%" y="-25%" width="150%" height="150%" color-interpolation-filters="sRGB">
      <feDropShadow dx="0" dy="14" stdDeviation="24" flood-color="#020617" flood-opacity="0.2"/>
    </filter>
    <pattern id="grid" width="72" height="72" patternUnits="userSpaceOnUse">
      <path d="M72 0H0V72" fill="none" stroke="#020617" stroke-opacity="0.08" stroke-width="1"/>
    </pattern>
    <symbol id="veilIcon" viewBox="0 0 320 320">
      <rect x="18" y="18" width="284" height="284" rx="70" fill="#07111f"/>
      <rect x="18" y="18" width="284" height="284" rx="70" fill="#67e8f9" opacity="0.08"/>
      <path d="M56 64c37 32 69 76 101 132 30 53 53 104 69 153 16-49 39-100 69-153 32-56 64-100 101-132 17-15 43-3 43 20 0 6-2 12-6 18-56 66-102 139-139 218-19 40-34 80-45 120-5 18-20 30-25 30s-20-12-25-30c-11-40-26-80-45-120C117 241 71 168 15 102c-4-6-6-12-6-18 0-23 30-35 47-20Z" transform="translate(48 0) scale(.72)" fill="url(#veilLeft)" opacity="0.95"/>
      <path d="M264 64c-37 32-69 76-101 132-30 53-53 104-69 153-16-49-39-100-69-153C-7 140-39 96-76 64c-17-15-43-3-43 20 0 6 2 12 6 18 56 66 102 139 139 218 19 40 34 80 45 120 5 18 20 30 25 30s20-12 25-30c11-40 26-80 45-120 37-79 83-152 139-218 4-6 6-12 6-18 0-23-30-35-47-20Z" transform="translate(272 0) scale(.72)" fill="url(#veilRight)" opacity="0.88"/>
    </symbol>
  </defs>

  <rect width="1600" height="2000" fill="url(#bg)"/>
  <rect width="1600" height="2000" fill="url(#mintGlow)"/>
  <rect width="1600" height="2000" fill="url(#roseGlow)"/>
  <rect width="1600" height="2000" fill="url(#grid)" opacity="0.86"/>

  <g transform="translate(140 120)">
    <use href="#veilIcon" width="104" height="104"/>
    <text x="132" y="49" fill="#07111f" font-family="-apple-system, BlinkMacSystemFont, Inter, Segoe UI, sans-serif" font-size="38" font-weight="760">Veil</text>
    <text x="132" y="88" fill="#0f766e" font-family="-apple-system, BlinkMacSystemFont, Inter, Segoe UI, sans-serif" font-size="16" font-weight="650">BROWSER OPERATIONS</text>
  </g>

  <g transform="translate(136 356)">
    <text x="0" y="0" fill="#07111f" font-family="-apple-system, BlinkMacSystemFont, Inter, Segoe UI, sans-serif" font-size="104" font-weight="790">Create a browser</text>
    <text x="0" y="118" fill="#07111f" font-family="-apple-system, BlinkMacSystemFont, Inter, Segoe UI, sans-serif" font-size="104" font-weight="790">identity system.</text>
    <text x="4" y="204" fill="#334155" font-family="-apple-system, BlinkMacSystemFont, Inter, Segoe UI, sans-serif" font-size="32" font-weight="520">Profiles, proxies, fingerprints, and automation in one secure desktop.</text>
  </g>

  <g transform="translate(188 676)" filter="url(#shadow)">
    <rect x="0" y="0" width="1224" height="796" rx="78" fill="url(#panel)" stroke="#ffffff" stroke-opacity="0.44" stroke-width="2"/>
    <rect x="62" y="66" width="1100" height="664" rx="48" fill="#071013" opacity="0.86"/>

    <g transform="translate(118 124)">
      <rect x="0" y="0" width="984" height="112" rx="34" fill="#ffffff" opacity="0.08"/>
      <rect x="38" y="36" width="244" height="20" rx="10" fill="#f8fafc" opacity="0.86"/>
      <rect x="38" y="72" width="170" height="15" rx="8" fill="#94a3b8" opacity="0.56"/>
      <rect x="774" y="30" width="160" height="52" rx="26" fill="#14b8a6" opacity="0.22"/>
      <circle cx="804" cy="56" r="10" fill="#5eead4"/>
      <text x="828" y="65" fill="#ccfbf1" font-family="-apple-system, BlinkMacSystemFont, Inter, Segoe UI, sans-serif" font-size="22" font-weight="720">new</text>
    </g>

    <g transform="translate(118 286)">
      <rect x="0" y="0" width="284" height="300" rx="36" fill="#ffffff" opacity="0.08" stroke="#ffffff" stroke-opacity="0.12"/>
      <circle cx="64" cy="66" r="29" fill="#14b8a6"/>
      <rect x="112" y="46" width="110" height="17" rx="8" fill="#f8fafc" opacity="0.78"/>
      <rect x="112" y="76" width="78" height="12" rx="6" fill="#94a3b8" opacity="0.48"/>
      <rect x="42" y="138" width="200" height="14" rx="7" fill="#5eead4" opacity="0.72"/>
      <rect x="42" y="178" width="156" height="14" rx="7" fill="#93c5fd" opacity="0.6"/>
      <rect x="42" y="218" width="186" height="14" rx="7" fill="#fb7185" opacity="0.58"/>
    </g>

    <g transform="translate(470 286)">
      <rect x="0" y="0" width="284" height="300" rx="36" fill="#ffffff" opacity="0.08" stroke="#ffffff" stroke-opacity="0.12"/>
      <circle cx="64" cy="66" r="29" fill="#60a5fa"/>
      <rect x="112" y="46" width="122" height="17" rx="8" fill="#f8fafc" opacity="0.78"/>
      <rect x="112" y="76" width="92" height="12" rx="6" fill="#94a3b8" opacity="0.48"/>
      <path d="M54 160h176M54 200h176" stroke="#ffffff" stroke-opacity="0.18" stroke-width="14" stroke-linecap="round"/>
      <path d="M54 160h116M54 200h146" stroke="#60a5fa" stroke-opacity="0.72" stroke-width="14" stroke-linecap="round"/>
    </g>

    <g transform="translate(822 286)">
      <rect x="0" y="0" width="284" height="300" rx="36" fill="#ffffff" opacity="0.08" stroke="#ffffff" stroke-opacity="0.12"/>
      <circle cx="64" cy="66" r="29" fill="#fb7185"/>
      <rect x="112" y="46" width="116" height="17" rx="8" fill="#f8fafc" opacity="0.78"/>
      <rect x="112" y="76" width="82" height="12" rx="6" fill="#94a3b8" opacity="0.48"/>
      <g transform="translate(52 138)">
        <rect x="0" y="0" width="182" height="104" rx="28" fill="#020617" opacity="0.56"/>
        <use href="#veilIcon" x="52" y="18" width="78" height="78"/>
      </g>
    </g>

    <path d="M250 632 C420 562 598 562 770 632 S1050 700 1110 606" fill="none" stroke="url(#track)" stroke-width="12" stroke-linecap="round"/>
    <circle cx="250" cy="632" r="17" fill="#14b8a6"/>
    <circle cx="594" cy="586" r="17" fill="#60a5fa"/>
    <circle cx="934" cy="664" r="17" fill="#fb7185"/>
  </g>

  <g transform="translate(152 1564)">
    <rect x="0" y="0" width="1296" height="178" rx="58" fill="#ffffff" opacity="0.1" stroke="#ffffff" stroke-opacity="0.18"/>
    <g transform="translate(48 42)">
      <circle cx="45" cy="45" r="45" fill="#14b8a6" opacity="0.2"/>
      <path d="M25 47l16 16 30-38" fill="none" stroke="#5eead4" stroke-width="11" stroke-linecap="round" stroke-linejoin="round"/>
    </g>
    <g transform="translate(176 48)">
      <text x="0" y="30" fill="#f8fafc" font-family="-apple-system, BlinkMacSystemFont, Inter, Segoe UI, sans-serif" font-size="31" font-weight="760">Operational from day one</text>
      <text x="0" y="82" fill="#cbd5e1" font-family="-apple-system, BlinkMacSystemFont, Inter, Segoe UI, sans-serif" font-size="24" font-weight="520">Start with isolated profiles and a private local vault.</text>
    </g>
  </g>

  <g transform="translate(1200 1744)" opacity="0.72">
    <use href="#veilIcon" width="126" height="126"/>
  </g>
</svg>
